<svg width="28" height="27" viewBox="0 0 28 27" fill="none" xmlns="http://www.w3.org/2000/svg">
<g clip-path="url(#clip0_1_195)">
<path d="M26.4211 3V10.5H18.9211" stroke="white" stroke-width="2" stroke-linecap="round" stroke-linejoin="round"/>
<path d="M23.2349 17.6942C22.4241 20.1389 20.8895 22.2367 18.8623 23.6714C16.8351 25.1061 14.4251 25.8 11.9955 25.6486C9.5659 25.4972 7.24829 24.5086 5.39194 22.8318C3.53559 21.1551 2.24107 18.881 1.70345 16.3523C1.16583 13.8236 1.41424 11.1772 2.41124 8.81195C3.40824 6.44671 5.09982 4.49076 7.23108 3.23882C9.36234 1.98689 11.8178 1.50682 14.2274 1.87094C16.6371 2.23506 18.8704 3.42365 20.5908 5.2576L26.3654 11.0507" stroke="white" stroke-width="2" stroke-linecap="round" stroke-linejoin="round"/>
</g>
<defs>
<clipPath id="clip0_1_195">
<rect width="28" height="27" fill="white"/>
</clipPath>
</defs>
</svg>
