<svg width="28" height="28" viewBox="0 0 28 28" fill="none" xmlns="http://www.w3.org/2000/svg">
<g clip-path="url(#clip0_1_185)">
<path d="M14.3356 26.5C21.2391 26.5 26.8356 20.9036 26.8356 14C26.8356 7.09644 21.2391 1.5 14.3356 1.5C7.43201 1.5 1.83557 7.09644 1.83557 14C1.83557 20.9036 7.43201 26.5 14.3356 26.5Z" stroke="white" stroke-width="2" stroke-linecap="round" stroke-linejoin="round"/>
<path d="M10.6981 10.25C10.9919 9.4146 11.572 8.71014 12.3355 8.26143C13.099 7.81271 13.9967 7.64868 14.8695 7.7984C15.7424 7.94812 16.5341 8.40192 17.1044 9.07942C17.6747 9.75692 17.9869 10.6144 17.9856 11.5C17.9856 14 14.2356 15.25 14.2356 15.25" stroke="white" stroke-width="2" stroke-linecap="round" stroke-linejoin="round"/>
<path d="M14.3356 20.25H14.3475" stroke="white" stroke-width="2" stroke-linecap="round" stroke-linejoin="round"/>
</g>
<defs>
<clipPath id="clip0_1_185">
<rect width="28" height="28" fill="white"/>
</clipPath>
</defs>
</svg>
